HIERARCHY
ROOT Hips
{
	OFFSET 0.000000 83.214638 0.000000
	CHANNELS 6 Xposition Yposition Zposition Xrotation Yrotation Zrotation
	JOINT Pelvis
	{
		OFFSET 0.000000 0.000000 0.000000
		CHANNELS 3 Xrotation Yrotation Zrotation
		JOINT LeftUpLeg
		{
			OFFSET 8.479700 -4.795502 -0.379100
			CHANNELS 3 Xrotation Yrotation Zrotation
			JOINT LeftLeg
			{
				OFFSET 0.024144 -32.555107 0.112900
				CHANNELS 3 Xrotation Yrotation Zrotation
				JOINT LeftFoot
				{
					OFFSET -0.024144 -32.638630 -3.012600
					CHANNELS 3 Xrotation Yrotation Zrotation
					JOINT LeftToeBase
					{
						OFFSET 0.970200 -13.225400 11.864200
						CHANNELS 3 Xrotation Yrotation Zrotation
						End Site
						{
							OFFSET 0.000000 12.319262 0.000000
						}
					}
					JOINT LFootTongue
					{
						OFFSET 1.142400 -1.059800 6.665200
						CHANNELS 3 Xrotation Yrotation Zrotation
						End Site
						{
							OFFSET 0.000000 12.319262 0.000000
						}
					}
				}
				JOINT LeftPantLeg
				{
					OFFSET 0.918482 -16.533964 -2.284700
					CHANNELS 3 Xrotation Yrotation Zrotation
					End Site
					{
						OFFSET 0.350399 24.744368 0.000000
					}
				}
			}
		}
		JOINT RightUpLeg
		{
			OFFSET -8.479700 -4.795502 -0.379100
			CHANNELS 3 Xrotation Yrotation Zrotation
			JOINT RightLeg
			{
				OFFSET -0.023144 -32.555092 0.112900
				CHANNELS 3 Xrotation Yrotation Zrotation
				JOINT RightFoot
				{
					OFFSET 0.023144 -32.638641 -3.012700
					CHANNELS 3 Xrotation Yrotation Zrotation
					JOINT RightToeBase
					{
						OFFSET -0.970200 -13.225400 11.864200
						CHANNELS 3 Xrotation Yrotation Zrotation
						End Site
						{
							OFFSET 0.000000 12.319244 0.000000
						}
					}
					JOINT RFootTongue
					{
						OFFSET -1.142200 -1.059800 6.665200
						CHANNELS 3 Xrotation Yrotation Zrotation
						End Site
						{
							OFFSET 0.000000 12.319243 0.000000
						}
					}
				}
				JOINT RightPantLeg
				{
					OFFSET -0.919482 -16.533978 -2.284800
					CHANNELS 3 Xrotation Yrotation Zrotation
					End Site
					{
						OFFSET -0.350400 24.744419 0.000000
					}
				}
			}
		}
	}
	JOINT Spine
	{
		OFFSET 0.000000 7.722000 1.166200
		CHANNELS 3 Xrotation Yrotation Zrotation
		JOINT Spine1
		{
			OFFSET 0.000000 12.024101 0.248800
			CHANNELS 3 Xrotation Yrotation Zrotation
			JOINT Spine2
			{
				OFFSET 0.000000 11.502998 -0.491200
				CHANNELS 3 Xrotation Yrotation Zrotation
				JOINT Neck
				{
					OFFSET 0.000000 18.430702 -3.123100
					CHANNELS 3 Xrotation Yrotation Zrotation
					JOINT Head
					{
						OFFSET 0.000000 9.051102 1.034000
						CHANNELS 3 Xrotation Yrotation Zrotation
						JOINT HairB
						{
							OFFSET 0.208400 24.786102 24.822300
							CHANNELS 3 Xrotation Yrotation Zrotation
							End Site
							{
								OFFSET 0.000000 32.263779 0.000000
							}
						}
						JOINT HairA
						{
							OFFSET -7.081100 24.428299 23.196600
							CHANNELS 3 Xrotation Yrotation Zrotation
							End Site
							{
								OFFSET 0.000000 32.263779 0.000000
							}
						}
						JOINT Hat
						{
							OFFSET 16.728800 15.048294 -15.439601
							CHANNELS 3 Xrotation Yrotation Zrotation
							End Site
							{
								OFFSET 0.000000 32.263779 0.000000
							}
						}
					}
				}
				JOINT LeftShoulder
				{
					OFFSET 6.197800 13.665199 -4.064700
					CHANNELS 3 Xrotation Yrotation Zrotation
					JOINT LeftArm
					{
						OFFSET 7.778100 -0.187103 -1.709300
						CHANNELS 3 Xrotation Yrotation Zrotation
						JOINT LeftForeArm
						{
							OFFSET 22.049376 0.000000 0.000000
							CHANNELS 3 Xrotation Yrotation Zrotation
							JOINT LeftHand
							{
								OFFSET 23.009392 0.000000 0.000000
								CHANNELS 3 Xrotation Yrotation Zrotation
								JOINT LeftHandThumb1
								{
									OFFSET 3.507191 -2.063065 3.133727
									CHANNELS 3 Xrotation Yrotation Zrotation
									JOINT LeftHandThumb2
									{
										OFFSET 3.101337 -1.790558 1.790558
										CHANNELS 3 Xrotation Yrotation Zrotation
										JOINT LeftHandThumb3
										{
											OFFSET 3.058640 -1.765907 1.765906
											CHANNELS 3 Xrotation Yrotation Zrotation
											End Site
											{
												OFFSET -0.415260 3.926476 -0.049563
											}
										}
									}
								}
								JOINT LeftHandIndex1
								{
									OFFSET 11.334419 -0.901459 3.706815
									CHANNELS 3 Xrotation Yrotation Zrotation
									JOINT LeftHandIndex2
									{
										OFFSET 3.283112 0.000000 0.000000
										CHANNELS 3 Xrotation Yrotation Zrotation
										JOINT LeftHandIndex3
										{
											OFFSET 3.323853 0.000000 0.000000
											CHANNELS 3 Xrotation Yrotation Zrotation
											End Site
											{
												OFFSET -1.135597 3.097809 0.402452
											}
										}
									}
								}
								JOINT LeftHandMiddle1
								{
									OFFSET 11.335861 0.000000 0.000000
									CHANNELS 3 Xrotation Yrotation Zrotation
									JOINT LeftHandMiddle2
									{
										OFFSET 3.410492 0.000000 0.000000
										CHANNELS 3 Xrotation Yrotation Zrotation
										JOINT LeftHandMiddle3
										{
											OFFSET 3.312172 0.000000 0.000000
											CHANNELS 3 Xrotation Yrotation Zrotation
											End Site
											{
												OFFSET -1.150200 3.080154 0.400270
											}
										}
									}
								}
								JOINT LeftHandRing1
								{
									OFFSET 11.514786 -0.013176 -3.003090
									CHANNELS 3 Xrotation Yrotation Zrotation
									JOINT LeftHandRing2
									{
										OFFSET 3.053307 0.000000 0.000000
										CHANNELS 3 Xrotation Yrotation Zrotation
										JOINT LeftHandRing3
										{
											OFFSET 3.295807 0.000000 0.000000
											CHANNELS 3 Xrotation Yrotation Zrotation
											End Site
											{
												OFFSET -1.281006 3.013344 0.375733
											}
										}
									}
								}
								JOINT LeftHandPinky1
								{
									OFFSET 10.518692 -0.960396 -5.730441
									CHANNELS 3 Xrotation Yrotation Zrotation
									JOINT LeftHandPinky2
									{
										OFFSET 2.861649 0.000000 0.000000
										CHANNELS 3 Xrotation Yrotation Zrotation
										JOINT LeftHandPinky3
										{
											OFFSET 2.863380 0.000000 0.000000
											CHANNELS 3 Xrotation Yrotation Zrotation
											End Site
											{
												OFFSET -0.843597 2.711159 0.369971
											}
										}
									}
								}
							}
							JOINT LSleeve
							{
								OFFSET 6.676277 -0.344902 -1.011730
								CHANNELS 3 Xrotation Yrotation Zrotation
								End Site
								{
									OFFSET 0.000000 14.885353 0.000000
								}
							}
						}
					}
				}
				JOINT RightShoulder
				{
					OFFSET -6.197800 13.665199 -4.064700
					CHANNELS 3 Xrotation Yrotation Zrotation
					JOINT RightArm
					{
						OFFSET -7.778100 -0.187103 -1.709300
						CHANNELS 3 Xrotation Yrotation Zrotation
						JOINT RightForeArm
						{
							OFFSET -22.049376 0.000000 0.000000
							CHANNELS 3 Xrotation Yrotation Zrotation
							JOINT RightHand
							{
								OFFSET -23.009392 0.000000 0.000000
								CHANNELS 3 Xrotation Yrotation Zrotation
								JOINT RightHandThumb1
								{
									OFFSET -3.507191 -2.063065 3.133727
									CHANNELS 3 Xrotation Yrotation Zrotation
									JOINT RightHandThumb2
									{
										OFFSET -3.101337 -1.790558 1.790558
										CHANNELS 3 Xrotation Yrotation Zrotation
										JOINT RightHandThumb3
										{
											OFFSET -3.058640 -1.765907 1.765906
											CHANNELS 3 Xrotation Yrotation Zrotation
											End Site
											{
												OFFSET 0.415260 3.926476 -0.049563
											}
										}
									}
								}
								JOINT RightHandIndex1
								{
									OFFSET -11.334419 -0.901459 3.706815
									CHANNELS 3 Xrotation Yrotation Zrotation
									JOINT RightHandIndex2
									{
										OFFSET -3.283112 0.000000 0.000000
										CHANNELS 3 Xrotation Yrotation Zrotation
										JOINT RightHandIndex3
										{
											OFFSET -3.323853 0.000000 0.000000
											CHANNELS 3 Xrotation Yrotation Zrotation
											End Site
											{
												OFFSET 1.135597 3.097809 0.402452
											}
										}
									}
								}
								JOINT RightHandMiddle1
								{
									OFFSET -11.335861 0.000000 0.000000
									CHANNELS 3 Xrotation Yrotation Zrotation
									JOINT RightHandMiddle2
									{
										OFFSET -3.410492 0.000000 0.000000
										CHANNELS 3 Xrotation Yrotation Zrotation
										JOINT RightHandMiddle3
										{
											OFFSET -3.312172 0.000000 0.000000
											CHANNELS 3 Xrotation Yrotation Zrotation
											End Site
											{
												OFFSET 1.150200 3.080154 0.400270
											}
										}
									}
								}
								JOINT RightHandRing1
								{
									OFFSET -11.514786 -0.013176 -3.003090
									CHANNELS 3 Xrotation Yrotation Zrotation
									JOINT RightHandRing2
									{
										OFFSET -3.053307 0.000000 0.000000
										CHANNELS 3 Xrotation Yrotation Zrotation
										JOINT RightHandRing3
										{
											OFFSET -3.295807 0.000000 0.000000
											CHANNELS 3 Xrotation Yrotation Zrotation
											End Site
											{
												OFFSET 1.281006 3.013344 0.375733
											}
										}
									}
								}
								JOINT RightHandPinky1
								{
									OFFSET -10.518692 -0.960396 -5.730441
									CHANNELS 3 Xrotation Yrotation Zrotation
									JOINT RightHandPinky2
									{
										OFFSET -2.861649 0.000000 0.000000
										CHANNELS 3 Xrotation Yrotation Zrotation
										JOINT RightHandPinky3
										{
											OFFSET -2.863380 0.000000 0.000000
											CHANNELS 3 Xrotation Yrotation Zrotation
											End Site
											{
												OFFSET 0.843597 2.711159 0.369971
											}
										}
									}
								}
							}
							JOINT RSleeve
							{
								OFFSET -6.676277 -0.344902 -1.011730
								CHANNELS 3 Xrotation Yrotation Zrotation
								End Site
								{
									OFFSET 0.000000 14.885353 0.000000
								}
							}
						}
					}
				}
				JOINT Backpack
				{
					OFFSET 0.000000 -2.471497 36.677502
					CHANNELS 3 Xrotation Yrotation Zrotation
					End Site
					{
						OFFSET 0.000000 20.427315 0.000000
					}
				}
				JOINT Hood
				{
					OFFSET 0.000000 18.754097 -10.431000
					CHANNELS 3 Xrotation Yrotation Zrotation
					JOINT Hood1
					{
						OFFSET 0.000000 -5.011002 -7.685901
						CHANNELS 3 Xrotation Yrotation Zrotation
						End Site
						{
							OFFSET 0.000000 9.175140 0.000000
						}
					}
				}
				JOINT LHoodieString
				{
					OFFSET 5.250500 16.397697 3.089900
					CHANNELS 3 Xrotation Yrotation Zrotation
					JOINT LHoodieString1
					{
						OFFSET 0.257700 -6.364304 3.694600
						CHANNELS 3 Xrotation Yrotation Zrotation
						JOINT LHoodieString2
						{
							OFFSET 0.000000 -9.643799 2.679100
							CHANNELS 3 Xrotation Yrotation Zrotation
							End Site
							{
								OFFSET 0.000000 10.009018 0.000000
							}
						}
					}
				}
				JOINT RHoodieString
				{
					OFFSET -5.250500 16.397697 3.089900
					CHANNELS 3 Xrotation Yrotation Zrotation
					JOINT RHoodieString1
					{
						OFFSET -0.257700 -6.364304 3.694600
						CHANNELS 3 Xrotation Yrotation Zrotation
						JOINT RHoodieString2
						{
							OFFSET 0.000000 -9.643799 2.679100
							CHANNELS 3 Xrotation Yrotation Zrotation
							End Site
							{
								OFFSET 0.000000 10.009018 0.000000
							}
						}
					}
				}
			}
			JOINT LBackpack_Strap
			{
				OFFSET 15.223200 -7.719803 -6.610900
				CHANNELS 3 Xrotation Yrotation Zrotation
				End Site
				{
					OFFSET 0.000000 16.040596 0.000000
				}
			}
			JOINT RBackpack_Strap
			{
				OFFSET -15.223000 -7.719803 -6.610900
				CHANNELS 3 Xrotation Yrotation Zrotation
				End Site
				{
					OFFSET 0.000000 16.040596 0.000000
				}
			}
		}
	}
	JOINT BoyFacialAnim_Joint
	{
		OFFSET 1.000000 -82.208099 -1.550900
		CHANNELS 3 Xrotation Yrotation Zrotation
		End Site
		{
			OFFSET 0.000000 30.012791 0.000000
		}
	}
}
MOTION
Frames: 4
Frame Time: 0.033333
-0.152291 68.113861 0.631119 -15.412166 -8.143656 -2.437716 0.000001 0.000000 0.000000 -39.292299 -4.486484 2.665291 59.527783 -20.515998 9.186878 -4.637332 7.684337 -12.604760 -0.000000 -0.000001 -0.000000 -0.000000 -0.000001 -0.000000 -0.000000 0.000001 -0.000000 10.028064 -15.300016 -11.623940 57.753566 4.684828 -7.138982 -44.319387 0.474209 11.356445 0.000000 -0.000001 0.000000 0.000000 -0.000001 0.000000 0.000003 -0.000000 0.000000 4.587701 1.043681 1.631696 -2.199008 1.891132 0.743504 -2.158376 1.905953 0.749922 -12.478704 5.671260 3.299829 35.134456 -1.457460 3.805890 -0.000000 0.000000 0.000000 -0.000000 0.000000 0.000000 -0.000000 0.000000 0.000000 -7.000548 -24.858899 -0.781966 -37.937832 -41.636119 -49.957414 57.952161 -22.791366 26.763169 4.228910 -12.935887 56.248404 -13.461665 -6.303065 27.913286 7.980992 33.305331 2.907262 0.000001 0.000000 0.000000 8.650463 -0.603208 -26.181858 -0.177055 0.259107 -20.600687 -0.000001 -0.000002 -0.000000 8.849307 0.441194 -31.807207 0.202719 0.630824 -15.954559 -0.000001 -0.000006 -0.000001 8.850639 0.293164 -20.710800 0.024367 0.280733 -22.564671 -0.000002 0.000000 -0.000000 9.890530 3.682223 -23.246518 0.158868 0.237129 -23.613829 -0.000001 0.000004 -0.000003 0.000000 0.000001 0.000000 -8.602185 33.858877 8.296901 -15.631895 47.576048 23.260892 61.385226 23.095180 -27.984419 4.052573 -10.922533 -40.646780 -13.899835 12.016662 -32.431500 7.566995 -31.900477 -2.460486 -0.000000 -0.000002 -0.000001 8.643216 0.632972 0.395073 -0.128391 -0.299794 11.214974 -0.000002 -0.000002 0.000002 8.792961 -0.255151 0.730486 0.356701 -0.462576 20.359880 0.000001 0.000002 -0.000004 8.828815 -0.196167 4.449423 0.112033 -0.088434 25.973789 0.000001 0.000000 0.000004 9.889361 -3.679158 22.536554 0.226322 -0.074879 27.023008 0.000001 0.000001 -0.000001 -0.000001 -0.000001 0.000001 -0.000000 -0.000000 -0.000000 -0.000000 -0.000000 -0.000000 -0.000000 -0.000000 -0.000000 -0.000000 -0.000000 -0.000000 -0.000000 -0.000000 -0.000000 -0.000000 -0.000000 -0.000000 -0.000000 -0.000000 -0.000000 -0.000000 -0.000000 -0.000000 -0.000000 -0.000000 -0.000000 0.000000 0.000000 -0.000000 0.000000 0.000000 -0.000000 0.000001 0.000000 0.000000 
0.022055 68.165092 0.901701 -15.246256 -10.698929 -2.685158 0.000001 0.000000 0.000000 -38.944383 -5.080160 4.079635 59.121817 -16.696817 7.402139 -5.442033 5.615250 -12.782619 -0.000000 0.000000 0.000000 -0.000000 0.000000 -0.000000 0.000001 -0.000001 0.000001 8.882641 -14.304011 -13.005779 57.919150 4.304643 -7.470198 -44.267190 2.383703 12.494277 -0.000000 -0.000000 0.000000 -0.000000 -0.000000 0.000000 -0.000001 0.000001 -0.000000 4.662195 1.193953 1.880923 -1.993675 2.166338 0.777396 -2.017920 2.199834 0.739523 -12.812197 5.975493 3.684437 35.948023 -0.201559 2.975012 0.000001 0.000000 -0.000000 0.000001 0.000000 -0.000000 0.000001 0.000000 -0.000000 -7.118595 -24.033904 -1.063301 -36.760638 -37.647596 -46.344189 61.842623 -29.311965 30.332925 3.538538 -10.080199 54.310707 -13.425576 -6.337489 27.850904 7.981540 33.315054 2.910181 0.000003 -0.000000 0.000001 8.470556 -1.221164 -19.403099 -0.177090 0.258717 -20.517313 -0.000001 0.000001 -0.000005 8.585799 -0.176812 -25.984114 0.204476 0.633107 -16.946889 0.000002 -0.000000 -0.000003 8.845314 0.280030 -19.164961 0.024343 0.280733 -22.561054 -0.000000 0.000003 0.000002 9.887714 3.675002 -22.099174 0.158797 0.237116 -23.610214 -0.000003 0.000004 0.000004 0.000000 0.000001 0.000000 -8.717278 34.076268 8.516861 -15.887840 48.333632 21.236153 64.073438 25.908866 -28.107053 1.161724 -12.488149 -40.819529 -13.985835 12.166750 -31.714856 7.663185 -32.203451 -2.551002 0.000002 -0.000001 0.000001 8.643528 0.632514 0.397044 -0.128405 -0.299853 11.215200 0.000001 -0.000001 0.000003 8.792557 -0.254154 0.731618 0.356676 -0.462526 20.360053 0.000002 0.000004 0.000000 8.828695 -0.195827 4.451477 0.111992 -0.088455 25.973978 0.000003 -0.000003 -0.000000 9.889422 -3.678792 22.537679 0.226359 -0.074876 27.023164 -0.000000 0.000000 0.000002 0.000001 -0.000001 0.000002 -0.000002 0.000000 -0.000000 -0.000002 0.000000 -0.000000 -0.000002 0.000000 -0.000000 -0.000002 0.000000 -0.000000 -0.000002 0.000000 -0.000000 -0.000001 0.000000 -0.000000 -0.000002 0.000000 -0.000000 -0.000002 0.000000 -0.000000 -0.000001 0.000000 -0.000000 0.000001 0.000001 0.000000 0.000001 0.000001 0.000000 0.000001 0.000000 0.000000 
0.444620 68.291214 1.218689 -15.069247 -13.961197 -2.955002 -0.000000 0.000001 0.000000 -38.343316 -6.224272 6.137406 58.680621 -14.017006 3.872551 -6.281992 5.038009 -12.093814 0.000000 0.000001 -0.000000 0.000000 0.000001 -0.000000 -0.000001 -0.000002 0.000002 7.287412 -13.139609 -14.800617 58.226919 5.817049 -8.096187 -43.943723 3.436170 12.707942 -0.000000 0.000001 -0.000000 -0.000000 0.000001 -0.000000 0.000004 -0.000002 0.000001 4.853427 1.381032 2.280146 -1.709084 2.537245 0.725650 -1.700061 2.511105 0.715021 -13.316282 6.430767 3.955857 36.838062 1.268501 1.933946 -0.000001 0.000000 0.000000 -0.000001 0.000000 0.000000 -0.000001 0.000000 0.000000 -7.438728 -23.032887 -1.974760 -33.614325 -33.179655 -44.060867 61.916314 -36.027083 37.511621 6.297515 -9.569873 48.962573 -13.373184 -6.375128 27.779329 7.977859 33.325613 2.913254 -0.000000 -0.000000 -0.000001 8.447684 -1.976582 -11.548863 -0.177165 0.258368 -20.420686 -0.000000 -0.000002 -0.000000 8.459251 -0.964162 -18.086618 0.204507 0.633136 -16.942740 0.000003 -0.000002 -0.000004 8.838827 0.263282 -17.376780 0.024384 0.280647 -22.556847 -0.000002 -0.000001 0.000003 9.884924 3.667354 -20.771363 0.158818 0.237088 -23.606035 0.000001 -0.000002 0.000003 0.000001 0.000001 -0.000000 -9.033717 34.326854 9.108309 -13.574064 46.682526 17.355890 68.489701 29.906035 -33.713073 -2.835304 -14.254536 -38.812021 -14.115213 12.402427 -30.530976 7.815737 -32.695856 -2.697555 0.000001 -0.000001 -0.000001 8.644310 0.631117 0.294722 -0.127681 -0.301705 11.772161 -0.000002 -0.000003 0.000001 8.790879 -0.249968 0.578384 0.356157 -0.462459 20.797101 -0.000001 0.000005 0.000001 8.828004 -0.193481 4.308239 0.111600 -0.090920 26.580924 0.000002 -0.000003 0.000002 9.879732 -3.680367 22.374989 0.226016 -0.075931 28.036016 -0.000001 0.000000 -0.000001 0.000001 -0.000001 0.000001 -0.000001 -0.000000 0.000000 -0.000001 -0.000000 0.000000 -0.000001 -0.000000 0.000000 -0.000001 -0.000000 0.000000 -0.000001 -0.000000 0.000000 -0.000001 -0.000000 0.000000 -0.000001 -0.000000 0.000000 -0.000001 -0.000000 0.000000 -0.000001 -0.000000 0.000000 -0.000000 0.000001 0.000000 -0.000000 0.000001 0.000000 -0.000000 0.000001 0.000000 
0.978851 68.469986 1.644278 -14.943639 -17.263312 -3.220672 -0.000000 -0.000002 -0.000001 -37.417419 -7.508825 8.455897 58.266493 -10.404303 -0.329465 -7.133932 3.396463 -11.184635 -0.000000 -0.000003 -0.000000 -0.000000 -0.000003 -0.000000 -0.000000 0.000001 -0.000000 5.803155 -12.071016 -16.520558 58.202269 7.428200 -9.031569 -43.429857 4.355188 13.105084 -0.000000 0.000001 -0.000000 -0.000000 0.000001 -0.000000 0.000002 -0.000001 0.000000 5.161216 1.532306 2.724537 -1.305255 2.726571 0.605977 -1.214005 2.620565 0.638578 -13.920518 6.994901 4.157607 36.396265 3.054888 0.764697 -0.000000 0.000000 0.000000 -0.000000 0.000000 0.000000 -0.000000 0.000000 0.000000 -7.849094 -21.720306 -3.294705 -29.229135 -28.936578 -41.408326 65.907255 -42.043868 48.723366 5.431177 -8.817044 41.946719 -13.318231 -6.400330 27.726214 7.969038 33.332580 2.915135 -0.000003 -0.000000 -0.000001 8.566727 -2.551930 -5.599156 -0.177138 0.258053 -20.347502 -0.000003 0.000000 -0.000002 8.499537 -1.584943 -12.105731 0.204485 0.633157 -16.939571 0.000001 -0.000001 0.000002 8.833205 0.248391 -16.026513 0.024298 0.280655 -22.553710 0.000003 0.000003 0.000000 9.883011 3.661611 -19.767766 0.158808 0.237129 -23.602880 -0.000004 0.000001 -0.000000 0.000001 -0.000001 0.000003 -9.377529 34.070722 9.901875 -9.510258 44.248803 12.318493 73.275820 33.657752 -43.216909 -7.267130 -16.192003 -32.606565 -14.282343 12.713452 -28.873727 8.022731 -33.373793 -2.898133 0.000000 -0.000000 -0.000000 8.645605 0.629380 -0.005496 -0.125634 -0.307126 13.353269 0.000002 -0.000001 0.000007 8.788281 -0.241768 0.139827 0.354759 -0.462158 22.029964 0.000003 0.000000 0.000003 8.826785 -0.188038 3.897182 0.110475 -0.098095 28.283836 -0.000002 -0.000000 0.000004 9.851988 -3.685395 21.910417 0.225121 -0.079133 30.862719 0.000001 -0.000000 0.000000 0.000002 -0.000000 -0.000001 0.000000 0.000001 -0.000000 0.000000 0.000001 -0.000000 0.000000 0.000001 -0.000000 0.000000 0.000001 -0.000000 0.000000 0.000001 -0.000000 0.000000 0.000001 0.000000 0.000000 0.000001 -0.000000 0.000000 0.000001 -0.000000 0.000000 0.000001 0.000000 -0.000000 -0.000001 -0.000000 -0.000000 -0.000001 -0.000000 -0.000000 -0.000002 -0.000001 
